<svg id="Layer_1" xmlns="http://www.w3.org/2000/svg" viewBox="0 0 800 500"><style>.st0{fill:#B18BE8;stroke:#404040;stroke-width:4;stroke-linecap:round;stroke-linejoin:round;stroke-miterlimit:10;} .st1{fill:#B3E3FF;stroke:#404040;stroke-width:4;stroke-miterlimit:10;} .st2{fill:none;stroke:#404040;stroke-width:4;stroke-linecap:round;stroke-linejoin:round;stroke-miterlimit:10;} .st3{fill:#FFFFFF;stroke:#404040;stroke-width:4;stroke-linecap:round;stroke-linejoin:round;stroke-miterlimit:10;} .st4{fill:#404040;} .st5{fill:#FFFFFF;stroke:#404040;stroke-width:4;stroke-miterlimit:10;}</style><g id="Making_x5F_a_x5F_pull_x5F_request"><path class="st0" d="M234.5,229.6h177.2v108.3H234.5L234.5,229.6z"/><path class="st1" d="M251.2,246.3H395v74.8H251.2V246.3z"/><path class="st0" d="M420.5,387.5H225.7l8.8-37.9h177.2L420.5,387.5z"/></g><path class="st2" d="M307.6,266.4V301"/><circle class="st3" cx="307.6" cy="266.4" r="8.7"/><circle class="st3" cx="307.6" cy="266.4" r="8.7"/><circle class="st3" cx="307.6" cy="301" r="8.7"/><path class="st2" d="M326.3,266.4h3.6c4.8,0,8.7,3.9,8.7,8.7V301 M329.9,271l-4.5-4.5l4.5-4.5"/><circle class="st3" cx="338.6" cy="301" r="8.7"/><path class="st4" d="M466,261.2c0-1.1,0.9-2,2-2s2,0.9,2,2s-0.9,2-2,2S466,262.3,466,261.2z M446,261.2c0-1.1,0.9-2,2-2s2,0.9,2,2	s-0.9,2-2,2S446,262.3,446,261.2z M426,261.2c0-1.1,0.9-2,2-2s2,0.9,2,2s-0.9,2-2,2S426,262.3,426,261.2z M485.9,260.2	c-0.5-1,0-2.2,1-2.6c1-0.4,2.2,0,2.6,1c0.5,1,0,2.2-1,2.6c-0.3,0.1-0.6,0.2-0.8,0.2C487,261.3,486.3,260.9,485.9,260.2L485.9,260.2z M499.3,246.2c-1.1-0.2-1.8-1.3-1.6-2.3c0.2-1.1,1.3-1.8,2.3-1.6c1.1,0.2,1.8,1.3,1.6,2.3c-0.2,1-1,1.6-2,1.6H499.3z M498.1,224.3	c0-1.1,0.9-2,2-2s2,0.9,2,2s-0.9,2-2,2S498.1,225.4,498.1,224.3z"/><path class="st5" d="M426,186.7v21.2h127.2c11.8,0,21.2-9.4,21.2-21.2s-9.4-21.2-21.2-21.2c0-11.8-9.4-21.2-21.2-21.2	c0-17.7-14.1-31.8-31.8-31.8c-17.7,0-31.8,14.1-31.8,31.8C444.8,144.3,426,163.4,426,186.7z"/></svg>